{
    "asset": {
        "copyright": "2024 (c) Adobe Inc.",
        "generator": "Adobe Substance 3D Stager - cf02bd4e1102092a0805c8f8fc279a2093662f5f",
        "version": "2.0"
    },
    "accessors": [
        {
            "bufferView": 0,
            "componentType": 5126,
            "count": 32592,
            "type": "VEC3",
            "max": [
                0.009992930106818676,
                0.12166160345077515,
                0.02442063018679619
            ],
            "min": [
                -0.010710630565881729,
                0.12004107981920243,
                -0.018716029822826387
            ]
        },
        {
            "bufferView": 1,
            "componentType": 5126,
            "count": 32592,
            "type": "VEC3"
        },
        {
            "bufferView": 2,
            "componentType": 5126,
            "count": 32592,
            "type": "VEC4"
        },
        {
            "bufferView": 3,
            "componentType": 5126,
            "count": 32592,
            "type": "VEC2"
        },
        {
            "bufferView": 4,
            "componentType": 5125,
            "count": 48816,
            "type": "SCALAR",
            "max": [
                32591.0
            ],
            "min": [
                0.0
            ]
        },
        {
            "bufferView": 5,
            "componentType": 5126,
            "count": 79960,
            "type": "VEC3",
            "max": [
                0.033418890088796619,
                0.12396148592233658,
                0.03341877833008766
            ],
            "min": [
                -0.033418867737054828,
                0.00003724999987753108,
                -0.03341887891292572
            ]
        },
        {
            "bufferView": 6,
            "componentType": 5126,
            "count": 79960,
            "type": "VEC3"
        },
        {
            "bufferView": 7,
            "componentType": 5126,
            "count": 79960,
            "type": "VEC4"
        },
        {
            "bufferView": 8,
            "componentType": 5126,
            "count": 79960,
            "type": "VEC2"
        },
        {
            "bufferView": 9,
            "componentType": 5125,
            "count": 82848,
            "type": "SCALAR",
            "max": [
                77015.0
            ],
            "min": [
                0.0
            ]
        },
        {
            "bufferView": 10,
            "componentType": 5125,
            "count": 36864,
            "type": "SCALAR",
            "max": [
                79959.0
            ],
            "min": [
                50.0
            ]
        }
    ],
    "bufferViews": [
        {
            "buffer": 0,
            "byteOffset": 0,
            "byteLength": 391104,
            "target": 34962
        },
        {
            "buffer": 0,
            "byteOffset": 391104,
            "byteLength": 391104,
            "target": 34962
        },
        {
            "buffer": 0,
            "byteOffset": 782208,
            "byteLength": 521472,
            "target": 34962
        },
        {
            "buffer": 0,
            "byteOffset": 1303680,
            "byteLength": 260736,
            "target": 34962
        },
        {
            "buffer": 0,
            "byteOffset": 1564416,
            "byteLength": 195264,
            "target": 34963
        },
        {
            "buffer": 0,
            "byteOffset": 1759680,
            "byteLength": 959520,
            "target": 34962
        },
        {
            "buffer": 0,
            "byteOffset": 2719200,
            "byteLength": 959520,
            "target": 34962
        },
        {
            "buffer": 0,
            "byteOffset": 3678720,
            "byteLength": 1279360,
            "target": 34962
        },
        {
            "buffer": 0,
            "byteOffset": 4958080,
            "byteLength": 639680,
            "target": 34962
        },
        {
            "buffer": 0,
            "byteOffset": 5597760,
            "byteLength": 331392,
            "target": 34963
        },
        {
            "buffer": 0,
            "byteOffset": 5929152,
            "byteLength": 147456,
            "target": 34963
        }
    ],
    "buffers": [
        {
            "byteLength": 6076608,
            "uri": "Can_Models_binary.bin"
        }
    ],
    "images": [
        {
            "name": "composited_baseColor",
            "uri": "Can_Models_images/composited_baseColor.jpg",
            "mimeType": "image/jpeg"
        },
        {
            "name": "composited_roughness",
            "uri": "Can_Models_images/composited_roughness.png",
            "mimeType": "image/png"
        }
    ],
    "materials": [
        {
            "pbrMetallicRoughness": {
                "baseColorFactor": [
                    0.3999999165534973,
                    0.3999999165534973,
                    0.3999999165534973,
                    1.0
                ],
                "roughnessFactor": 0.30000001192092898
            },
            "name": "Pull Ring Material",
            "doubleSided": true,
            "extensions": {
                "KHR_materials_ior": {
                    "ior": 1.600000023841858
                }
            }
        },
        {
            "pbrMetallicRoughness": {
                "baseColorTexture": {
                    "index": 0
                },
                "metallicFactor": 0.0,
                "metallicRoughnessTexture": {
                    "index": 1
                }
            },
            "name": "Matte",
            "doubleSided": true,
            "extensions": {
                "KHR_materials_ior": {
                    "ior": 1.600000023841858
                }
            }
        }
    ],
    "meshes": [
        {
            "name": "Pull Ring",
            "primitives": [
                {
                    "attributes": {
                        "TANGENT": 2,
                        "NORMAL": 1,
                        "POSITION": 0,
                        "TEXCOORD_0": 3
                    },
                    "indices": 4,
                    "material": 0
                }
            ]
        },
        {
            "name": "Can",
            "primitives": [
                {
                    "attributes": {
                        "TANGENT": 7,
                        "NORMAL": 6,
                        "POSITION": 5,
                        "TEXCOORD_0": 8
                    },
                    "indices": 9,
                    "material": 0
                },
                {
                    "attributes": {
                        "POSITION": 5,
                        "NORMAL": 6,
                        "TANGENT": 7,
                        "TEXCOORD_0": 8
                    },
                    "indices": 10,
                    "material": 1
                }
            ]
        }
    ],
    "nodes": [
        {
            "name": "working_cam_n3d"
        },
        {
            "children": [
                2,
                3
            ],
            "translation": [
                0.022842224687337877,
                0.011507720686495304,
                -0.0030088305938988926
            ],
            "rotation": [
                0.03974759951233864,
                -0.05982298031449318,
                0.1953655183315277,
                0.9780969619750977
            ],
            "scale": [
                1.000000238418579,
                1.0000001192092896,
                1.0
            ],
            "name": "Beverage Can"
        },
        {
            "mesh": 0,
            "name": "Pull Ring"
        },
        {
            "mesh": 1,
            "name": "Can"
        }
    ],
    "samplers": [
        {}
    ],
    "scenes": [
        {
            "nodes": [
                1
            ],
            "name": "scene"
        }
    ],
    "textures": [
        {
            "name": "composited_baseColor",
            "sampler": 0,
            "source": 0
        },
        {
            "name": "composited_roughness",
            "sampler": 0,
            "source": 1
        }
    ],
    "scene": 0,
    "extensionsUsed": [
        "KHR_materials_ior"
    ]
}